<svg width="700" height="140" viewBox="0 0 700 140" fill="none" xmlns="http://www.w3.org/2000/svg" role="img" aria-label="LendFolio">
  <title>LendFolio</title>
  <path d="M1008 222V0H161V1446H430V222ZM1822 631Q1822 679 1808.5 721.5Q1795 764 1768.0 796.0Q1741 828 1699.5 846.5Q1658 865 1603 865Q1496 865 1434.5 804.0Q1373 743 1356 631ZM1351 482Q1357 403 1379.0 345.5Q1401 288 1437.0 250.5Q1473 213 1522.5 194.5Q1572 176 1632 176Q1692 176 1735.5 190.0Q1779 204 1811.5 221.0Q1844 238 1868.5 252.0Q1893 266 1916 266Q1947 266 1962 243L2033 153Q1992 105 1941.0 72.5Q1890 40 1834.5 20.5Q1779 1 1721.5 -7.0Q1664 -15 1610 -15Q1503 -15 1411.0 20.5Q1319 56 1251.0 125.5Q1183 195 1144.0 297.5Q1105 400 1105 535Q1105 640 1139.0 732.5Q1173 825 1236.5 893.5Q1300 962 1391.5 1002.0Q1483 1042 1598 1042Q1695 1042 1777.0 1011.0Q1859 980 1918.0 920.5Q1977 861 2010.5 774.5Q2044 688 2044 577Q2044 521 2032.0 501.5Q2020 482 1986 482ZM2460 900Q2491 931 2525.5 957.5Q2560 984 2598.5 1002.5Q2637 1021 2681.0 1031.5Q2725 1042 2777 1042Q2861 1042 2926.0 1013.5Q2991 985 3034.5 933.5Q3078 882 3100.5 810.5Q3123 739 3123 653V0H2876V653Q2876 747 2833.0 798.5Q2790 850 2702 850Q2638 850 2582.0 821.0Q2526 792 2476 742V0H2229V1026H2380Q2428 1026 2443 981ZM4001 764Q3959 815 3909.5 836.0Q3860 857 3803 857Q3747 857 3702.0 836.0Q3657 815 3625.0 772.5Q3593 730 3576.0 664.5Q3559 599 3559 510Q3559 420 3573.5 357.5Q3588 295 3615.0 255.5Q3642 216 3681.0 198.5Q3720 181 3768 181Q3845 181 3899.0 213.0Q3953 245 4001 304ZM4248 1486V0H4097Q4048 0 4035 45L4014 144Q3952 73 3871.5 29.0Q3791 -15 3684 -15Q3600 -15 3530.0 20.0Q3460 55 3409.5 121.5Q3359 188 3331.5 286.0Q3304 384 3304 510Q3304 624 3335.0 722.0Q3366 820 3424.0 892.0Q3482 964 3563.0 1004.5Q3644 1045 3745 1045Q3831 1045 3892.0 1018.0Q3953 991 4001 945V1486ZM4801 1232V804H5343V589H4801V0H4531V1446H5443V1232ZM6078 1042Q6192 1042 6285.5 1005.0Q6379 968 6445.5 900.0Q6512 832 6548.0 734.0Q6584 636 6584 515Q6584 393 6548.0 295.0Q6512 197 6445.5 128.0Q6379 59 6285.5 22.0Q6192 -15 6078 -15Q5963 -15 5869.0 22.0Q5775 59 5708.5 128.0Q5642 197 5605.5 295.0Q5569 393 5569 515Q5569 636 5605.5 734.0Q5642 832 5708.5 900.0Q5775 968 5869.0 1005.0Q5963 1042 6078 1042ZM6078 175Q6206 175 6267.5 261.0Q6329 347 6329 513Q6329 679 6267.5 766.0Q6206 853 6078 853Q5948 853 5885.5 765.5Q5823 678 5823 513Q5823 348 5885.5 261.5Q5948 175 6078 175ZM7023 1486V0H6776V1486ZM7526 1026V0H7279V1026ZM8234 1042Q8348 1042 8441.5 1005.0Q8535 968 8601.5 900.0Q8668 832 8704.0 734.0Q8740 636 8740 515Q8740 393 8704.0 295.0Q8668 197 8601.5 128.0Q8535 59 8441.5 22.0Q8348 -15 8234 -15Q8119 -15 8025.0 22.0Q7931 59 7864.5 128.0Q7798 197 7761.5 295.0Q7725 393 7725 515Q7725 636 7761.5 734.0Q7798 832 7864.5 900.0Q7931 968 8025.0 1005.0Q8119 1042 8234 1042ZM8234 175Q8362 175 8423.5 261.0Q8485 347 8485 513Q8485 679 8423.5 766.0Q8362 853 8234 853Q8104 853 8041.5 765.5Q7979 678 7979 513Q7979 348 8041.5 261.5Q8104 175 8234 175Z" transform="translate(17.917 124.881) scale(0.074617 -0.074617)" fill="#061F3D" stroke="#000B16" stroke-width="8" fill-rule="evenodd"/>
  <circle cx="570.232" cy="25.901" r="11.789" fill="#8A9797" stroke="#344445" stroke-width="1.3"/>
</svg>